<?xml version="1.0" encoding="utf-8"?><!-- Uploaded to: SVG Repo, www.svgrepo.com, Generator: SVG Repo Mixer Tools -->
<svg version="1.1" id="Uploaded to svgrepo.com" xmlns="http://www.w3.org/2000/svg" xmlns:xlink="http://www.w3.org/1999/xlink" 
	 width="800px" height="800px" viewBox="0 0 32 32" xml:space="preserve">
<style type="text/css">
	.linesandangles_een{fill:#111918;}
</style>
<path class="linesandangles_een" d="M24.485,21.485c4.678-4.679,4.678-12.292,0-16.971l-0.707-0.707l-2.165,2.164
	C20.074,4.741,18.125,4,16,4c-4.971,0-9,4.029-9,9c0,2.125,0.741,4.074,1.972,5.614l-2.164,2.165l0.707,0.707
	C9.6,23.571,12.268,24.72,15,24.947V26h-5v2h12v-2h-5v-1.053C19.731,24.72,22.4,23.571,24.485,21.485z M23.071,20.071
	c-3.661,3.66-9.475,3.883-13.4,0.671l0.715-0.715C11.926,21.259,13.875,22,16,22c4.971,0,9-4.029,9-9
	c0-2.125-0.741-4.074-1.972-5.614l0.715-0.715C26.954,10.596,26.731,16.411,23.071,20.071z M16,6c3.86,0,7,3.14,7,7s-3.14,7-7,7
	s-7-3.14-7-7S12.14,6,16,6z"/>
</svg>