<?xml version="1.0" encoding="utf-8"?><!-- Uploaded to: SVG Repo, www.svgrepo.com, Generator: SVG Repo Mixer Tools -->
<svg width="800px" height="800px" viewBox="0 0 366.34 366.34" id="Layer_1" data-name="Layer 1" xmlns="http://www.w3.org/2000/svg" xmlns:xlink="http://www.w3.org/1999/xlink"><defs><style>.cls-1{fill:#845161;}.cls-2{fill:#ff2609;}.cls-3{fill:#69303a;}.cls-4{fill:url(#linear-gradient);}.cls-5{fill:url(#linear-gradient-2);}.cls-6{fill:#ffffff;}.cls-7,.cls-9{fill:none;stroke-miterlimit:10;}.cls-7{stroke:#00214e;}.cls-8{fill:url(#linear-gradient-3);}.cls-9{stroke:#e18477;}.cls-10{fill:#00214e;}</style><linearGradient id="linear-gradient" x1="174.54" y1="122.6" x2="320.66" y2="150.53" gradientUnits="userSpaceOnUse"><stop offset="0" stop-color="#16243f"/><stop offset="1" stop-color="#6878b1"/></linearGradient><linearGradient id="linear-gradient-2" x1="128.47" y1="101.14" x2="275.6" y2="156.81" xlink:href="#linear-gradient"/><linearGradient id="linear-gradient-3" x1="144.35" y1="220.61" x2="249.3" y2="220.61" xlink:href="#linear-gradient"/></defs><title>Artboards_Diversity_Avatars_by_Netguru</title><path class="cls-1" d="M296.41,288.65a184.56,184.56,0,0,1-226.48-1l48.66-22.81a46.83,46.83,0,0,0,6.65-3.82c.64-.44,1.28-.9,1.89-1.38a46.35,46.35,0,0,0,12.78-15.09,44.69,44.69,0,0,0,4.64-14.48,67.91,67.91,0,0,0,.74-9.91c0-5.72-.31-11.44-.37-17.17q-.06-4.75-.1-9.51l2,1,5.2,2.69,2.41.41,27.88,4.74,31.12,5.3.94,32,.31,10.46.15,5.08v.33l12.1,4.92Z"/><path class="cls-2" d="M296.41,288.65a184.56,184.56,0,0,1-226.48-1l48.66-22.81a46.83,46.83,0,0,0,6.65-3.82c.64-.44,1.28-.9,1.89-1.38,23.55,16.76,55.69,27.33,83.49,14.82,6.62-3,12.7-7.84,16.3-14.06Z"/><path class="cls-3" d="M214.81,255.14c-10.45.63-22.13-2.07-33-8.34-20.41-11.79-31.32-32.35-27.4-49.21l27.88,4.74,31.12,5.3.94,32Z"/><path class="cls-4" d="M264.4,132c-1.72,17.75-7.19,35.36-17.47,49.33a26.17,26.17,0,0,1-5.94,6.2c-4,0-9.71,3.85-14.3,4.2-3.45.27-7.1-.75-10.45-.27-10.46,1.49-21.66,8.91-31.26,13.23-6.49,2.91-13.15,5.86-20.24,6.32-7.53.47-14.62-1.9-21-5.87-.93-.57-1.84-1.17-2.73-1.81a73.81,73.81,0,0,1-15.59-15.58c-14.68-19.41-24-45.13-20.53-70.06,7.85-56,78.52-90.39,129.37-74.36a28.43,28.43,0,0,1,5.39,2.33,20.39,20.39,0,0,1,2.08,1.28c.7.82,1.39,1.66,2.06,2.51,1.38,1.73,2.71,3.52,4,5.35l.66,1A110.87,110.87,0,0,1,260.11,78C267.16,96.09,266.26,112.81,264.4,132Z"/><path class="cls-5" d="M239.64,45.65a34.35,34.35,0,0,1-2.76,9.55q-6.54,16.33-14,32.3c-2.5,5.38-4.85,10.92-7.51,16.23-1,2-1.83,4.11-3,6-1.39,2.24-3.21,4.21-4.68,6.4-2.27,3.42-5,6.62-7.57,9.8q-8.21,10.06-17.4,19.29c-6.62,6.65-13.61,12.94-20.09,19.73a91.42,91.42,0,0,0-8.63,9.76,63.71,63.71,0,0,0-4.54,7.95c-1.11,2.17-3.11,4.85-3.19,7.36a53,53,0,0,0,2.09,16.52,37.87,37.87,0,0,1-12.95-7.74,81.16,81.16,0,0,1-10-11.09c-14.68-19.41-24-45.13-20.53-70.06,7.85-56,78.52-90.39,129.37-74.36A28.43,28.43,0,0,1,239.64,45.65Z"/><circle class="cls-1" cx="134.98" cy="165.47" r="17"/><circle class="cls-3" cx="140.38" cy="165.47" r="15.22"/><path class="cls-1" d="M248,150.47s4.57,9.68,4.84,26.94a84.2,84.2,0,0,1-3.65,24.13c-1.28,4.54-2.8,9-4.36,13.32-4.25,11.78-8.29,26-20.94,31.11-12.38,5-28.46-.13-40.06-5.3a84.39,84.39,0,0,1-11.38-6.16l-.21-.14a77.19,77.19,0,0,1-6.63-4.77h0a82.84,82.84,0,0,1-13-12.84c-4.73-5.81-7.56-10.16-8.12-17.42,0-.34-.05-.68-.08-1-.47-6.24-5.89-54.59-6.43-57.61a136,136,0,0,0,55.91-19l.25-.15c1-.61,2.07-1.25,3.17-1.9,2-1.17,4.1-2.42,6.17-3.76,4.7-3.06,9.16-6.59,11.39-10.86a30.28,30.28,0,0,0,9.22,7.33c.2.12.41.23.62.34.73.39,1.46.76,2.2,1.11a53.16,53.16,0,0,0,6.81,2.71c8.09,2.56,11.22,2.91,19.61,4.1C252.72,120.58,248.33,148.37,248,150.47Z"/><path class="cls-6" d="M224,112.32a25.19,25.19,0,0,1-9.55,3.91,33.42,33.42,0,0,1-10-.22l-1-.16c4.7-3.06,9.16-6.59,11.39-10.86A30.28,30.28,0,0,0,224,112.32Z"/><path class="cls-7" d="M217.05,154.3c-.06.24,5.54,15.88,8.93,25.32a5.25,5.25,0,0,1-4.95,7H217.4"/><path class="cls-7" d="M203.4,180.56a3.15,3.15,0,0,0,2.3,5.78"/><path class="cls-7" d="M169.11,142.72a80.82,80.82,0,0,1,28.13-.8"/><path class="cls-7" d="M231.7,141.77a55,55,0,0,1,17.45-1.21"/><path class="cls-7" d="M195.85,157.92a11.6,11.6,0,0,1-5.18,8.32,12.14,12.14,0,0,1-1.85,1,23.58,23.58,0,0,1-6.41,1.37"/><line class="cls-7" x1="197.21" y1="125.54" x2="228.81" y2="125.54"/><line class="cls-7" x1="193.18" y1="132.06" x2="224.79" y2="132.06"/><path class="cls-7" d="M228.67,155.64a34.8,34.8,0,0,0,3.74,7.22,10.09,10.09,0,0,0,6.24,4"/><path class="cls-8" d="M249.3,201.45c-1.31,4.71-2.87,9.33-4.49,13.8-4.26,11.78-8.3,26-20.95,31.1-12.37,5-28.46-.13-40.05-5.3a79.51,79.51,0,0,1-11.38-6.54l-.21-.14c-2.19-1.48-4.42-3.09-6.63-4.77h0a82.84,82.84,0,0,1-13-12.84c-4.73-5.81-7.56-10.16-8.12-17.42,0-.34-.05-.68-.08-1,11.36,8.64,27.93,14,40.62,7.76,6.89-3.38,13.64-7.79,20.83-10.57a35.05,35.05,0,0,1,15.11-2.61c7.34.5,10.48,3.81,15.85,8.18,1.76,1.44,3.73,2.94,6,3a11.52,11.52,0,0,0,6.4-2.48Z"/><path class="cls-9" d="M202.55,202.91a29.78,29.78,0,0,0,20.92.19"/><path class="cls-10" d="M186.21,152.42c6.11-.07,6.29,9.25.19,9.42h-.28c-6.1.07-6.28-9.25-.18-9.42h.27Z"/><path class="cls-10" d="M236.45,150.78c5.66-.06,5.83,8.59.17,8.74h-.25c-5.67.06-5.83-8.59-.17-8.75h.25Z"/></svg>