<?xml version="1.0" encoding="utf-8"?>
<!-- Uploaded to: SVG Repo, www.svgrepo.com, Generator: SVG Repo Mixer Tools -->
<svg width="800px" height="800px" viewBox="0 0 1024 1024" class="icon"  version="1.1" xmlns="http://www.w3.org/2000/svg"><path d="M90.595742 591.482946l597.480328-454.389857S933.474816 275.667884 933.474816 462.01006L90.595742 591.482946z" fill="#EACC53" /><path d="M90.595742 591.482946V941.941707L933.474816 812.398264V461.939503z" fill="#F5AD1A" /><path d="M90.595742 791.583821v97.298698L933.474816 759.409633v-97.369255zM468.642458 268.894371s-33.79701 127.426721 179.568663 98.215944c78.318749-12.276993 225.642665-16.863226 202.640943-98.215944-12.276993-29.140219-37.395439-53.129746-43.745608-55.458141 6.350169-12.065321 24.765658-45.509543-17.85103-64.489493-24.201199-8.043547-48.8963-11.500861-63.925033-14.393716-15.522635-6.914628-31.680287-30.48081-12.62978-51.789154-21.308344-3.457314-85.16282 2.892855-122.628815 70.204644-12.62978-1.128919-51.224695-2.328395-61.032178 21.872804-7.479088 21.308344-2.892855 37.959898 2.892854 48.33184-19.544408 3.598429-54.046992 21.167229-63.290016 45.721216z" fill="#F5ECDA" /><path d="M667.049955 236.50851m-67.452904 0a67.452904 67.452904 0 1 0 134.905809 0 67.452904 67.452904 0 1 0-134.905809 0Z" fill="#5B2B20" /><path d="M239.330807 519.161579m-17.85103 0a17.85103 17.85103 0 1 0 35.70206 0 17.85103 17.85103 0 1 0-35.70206 0Z" fill="#774621" /><path d="M286.251499 479.790533m-17.85103 0a17.85103 17.85103 0 1 0 35.70206 0 17.85103 17.85103 0 1 0-35.70206 0Z" fill="#774621" /><path d="M494.184249 483.459519m-17.851031 0a17.85103 17.85103 0 1 0 35.702061 0 17.85103 17.85103 0 1 0-35.702061 0Z" fill="#774621" /></svg>