<?xml version="1.0" ?>
<!DOCTYPE svg  PUBLIC '-//W3C//DTD SVG 1.1//EN'  'http://www.w3.org/Graphics/SVG/1.1/DTD/svg11.dtd'>
<!-- Uploaded to: SVG Repo, www.svgrepo.com, Generator: SVG Repo Mixer Tools -->
<svg fill="#000000" width="800px" height="800px" viewBox="0 0 32 32" style="fill-rule:evenodd;clip-rule:evenodd;stroke-linejoin:round;stroke-miterlimit:2;" version="1.1" xml:space="preserve" xmlns="http://www.w3.org/2000/svg" xmlns:serif="http://www.serif.com/" xmlns:xlink="http://www.w3.org/1999/xlink">
<g transform="matrix(1,0,0,1,-384,-96)">
<g transform="matrix(1.2,0,0,0.9375,-77.4,7.625)">
<path d="M392,108.133C392,106.955 391.254,106 390.333,106C389.797,106 389.203,106 388.667,106C387.746,106 387,106.955 387,108.133C387,111.196 387,116.804 387,119.867C387,121.045 387.746,122 388.667,122C389.203,122 389.797,122 390.333,122C391.254,122 392,121.045 392,119.867C392,116.804 392,111.196 392,108.133Z" style="fill:rgb(144,224,239);"/>
</g>
<g transform="matrix(1,0,0,1,201.034,-162)">
<path d="M196,270.464C196,270.113 196.092,269.768 196.268,269.464C196.909,268.353 198.545,265.52 199.423,264C199.78,263.381 200.44,263 201.155,263C201.279,263 201.41,263 201.542,263C202.144,263 202.714,263.271 203.094,263.738C203.473,264.204 203.623,264.817 203.501,265.406C203.263,266.55 202.99,267.867 202.797,268.797C202.736,269.091 202.811,269.398 203.001,269.631C203.191,269.865 203.476,270 203.776,270C205.355,270 208.117,270 210,270C210.53,270 211.039,270.211 211.414,270.586C211.789,270.961 212,271.47 212,272C212,273.998 212,276.96 212,278.298C212,278.753 211.845,279.193 211.562,279.548C210.843,280.446 209.413,282.234 208.6,283.249C208.221,283.724 207.646,284 207.039,284C205.085,284 200.613,284 198,284C196.895,284 196,283.105 196,282C196,278.713 196,272.346 196,270.464Z" style="fill:rgb(144,224,239);"/>
</g>
<path d="M404.811,107C404.811,107 405.514,103.609 405.514,103.609C405.698,102.726 405.473,101.806 404.904,101.106C404.334,100.406 403.479,100 402.577,100L402.189,100C401.117,100 400.127,100.572 399.591,101.5C398.713,103.02 397.078,105.853 396.436,106.964C396.173,107.42 396.034,107.937 396.034,108.464L396.034,120C396.034,121.657 397.377,123 399.034,123L408.073,123C408.984,123 409.846,122.586 410.416,121.874C411.228,120.859 412.658,119.071 413.377,118.173C413.802,117.641 414.034,116.98 414.034,116.298L414.034,110C414.034,109.204 413.718,108.441 413.156,107.879C412.593,107.316 411.83,107 411.034,107L404.811,107ZM394,109C394,107.343 392.657,106 391,106L389,106C387.343,106 386,107.343 386,109C386,111.871 386,117.129 386,120C386,121.657 387.343,123 389,123L391,123C392.657,123 394,121.657 394,120L394,109ZM398.034,120L398.034,108.464C398.034,108.289 398.08,108.116 398.168,107.964L401.323,102.5C401.502,102.191 401.832,102 402.189,102C402.189,102 402.577,102 402.577,102C402.878,102 403.162,102.135 403.352,102.369C403.542,102.602 403.617,102.909 403.556,103.203L402.852,106.594C402.73,107.183 402.88,107.796 403.259,108.262C403.639,108.729 404.209,109 404.811,109L411.034,109C411.299,109 411.554,109.105 411.741,109.293C411.929,109.48 412.034,109.735 412.034,110L412.034,116.298C412.034,116.526 411.957,116.746 411.815,116.923L408.854,120.625C408.664,120.862 408.377,121 408.073,121C408.073,121 399.034,121 399.034,121C398.482,121 398.034,120.552 398.034,120ZM392,109L392,120C392,120.552 391.552,121 391,121C391,121 389,121 389,121C388.448,121 388,120.552 388,120L388,109C388,108.448 388.448,108 389,108C389,108 391,108 391,108C391.552,108 392,108.448 392,109Z" style="fill:rgb(25,144,167);"/>
</g>
</svg>